<?xml version="1.0" encoding="iso-8859-1"?>
<!-- Generator: Adobe Illustrator 19.0.0, SVG Export Plug-In . SVG Version: 6.00 Build 0)  -->
<svg version="1.1" id="Capa_1" xmlns="http://www.w3.org/2000/svg" xmlns:xlink="http://www.w3.org/1999/xlink" x="0px" y="0px"
	 viewBox="0 0 512 512" style="enable-background:new 0 0 512 512;" xml:space="preserve">
<path style="fill:#E3E3E3;" d="M416,30v326c0,11.05-8.95,20-20,20H234c-11.05,0-20-8.95-20-20V30c0-11.05,8.95-20,20-20h162
	C407.05,10,416,18.95,416,30z"/>
<g>
	<path style="fill:#4DBBEB;" d="M376,482v20H214v-20c0-11.05,8.95-20,20-20h40h42h40C367.05,462,376,470.95,376,482z"/>
	<path style="fill:#4DBBEB;" d="M376,50v286H213V50H376z"/>
</g>
<rect x="256" y="376" style="fill:#57555C;" width="60" height="86"/>
<path d="M277.57,123.79c3.9-3.91,3.9-10.24,0-14.15c-3.91-3.9-10.24-3.9-14.14,0c-3.91,3.91-3.91,10.24,0,14.15
	C267.33,127.69,273.66,127.69,277.57,123.79z"/>
<path d="M396,386c16.542,0,30-13.458,30-30V30c0-16.542-13.458-30-30-30H116C99.458,0,86,13.458,86,30v326c0,16.542,13.458,30,30,30
	h70v66h-30c-16.542,0-30,13.458-30,30v20c0,5.522,4.477,10,10,10h240c5.522,0,10-4.478,10-10v-20c0-16.542-13.458-30-30-30h-30v-66
	H396z M106,356V30c0-5.514,4.486-10,10-10h280c5.514,0,10,4.486,10,10v326c0,5.514-4.486,10-10,10H116
	C110.486,366,106,361.514,106,356z M366,482v10H146v-10c0-5.514,4.486-10,10-10h200C361.514,472,366,476.486,366,482z M306,452H206
	v-66h100V452z"/>
<path d="M386,336V50c0-5.523-4.478-10-10-10H136c-5.523,0-10,4.477-10,10v286c0,5.523,4.477,10,10,10h240
	C381.522,346,386,341.523,386,336z M366,326H146V60h220V326z"/>
<path d="M235.139,137.929l-56.57,56.57c-3.905,3.905-3.905,10.237,0,14.143c1.953,1.953,4.512,2.929,7.071,2.929
	s5.119-0.976,7.071-2.929l56.57-56.57c3.905-3.905,3.905-10.237,0-14.143C245.376,134.024,239.045,134.023,235.139,137.929z"/>
<path d="M171.5,169.14c2.559,0,5.119-0.976,7.071-2.929l70.71-70.71c3.905-3.905,3.905-10.237,0-14.143
	c-3.905-3.904-10.236-3.905-14.143,0l-70.71,70.71c-3.905,3.905-3.905,10.237,0,14.143C166.381,168.164,168.941,169.14,171.5,169.14
	z"/>
<g>
</g>
<g>
</g>
<g>
</g>
<g>
</g>
<g>
</g>
<g>
</g>
<g>
</g>
<g>
</g>
<g>
</g>
<g>
</g>
<g>
</g>
<g>
</g>
<g>
</g>
<g>
</g>
<g>
</g>
</svg>
