<svg width="499" height="193" viewBox="0 0 499 193" fill="none" xmlns="http://www.w3.org/2000/svg">
<path fill-rule="evenodd" clip-rule="evenodd" d="M100.267 18.8241C100.323 15.9054 101.271 12.9189 103.168 10.1813C100.407 20.3852 104.2 27.8062 114.491 32.467C110.698 32.4217 107.128 31.0416 104.618 28.9601C105.071 32.311 104.924 36.0552 104.781 39.6887V39.6889V39.6891V39.6894V39.6896V39.6898V39.69V39.6903C104.713 41.4289 104.646 43.1423 104.646 44.775C109.834 47.1959 115.719 48.3272 122.357 48.0783C122.974 44.8689 123.8 41.6053 124.589 38.486L124.589 38.4858L124.589 38.4857C125.903 33.293 127.115 28.5004 127.098 25.0233C122.635 13.9823 110.085 4.20826 94.8842 0C91.0074 0.429876 87.6605 1.56113 84.732 3.32589C90.4217 7.24002 96.1951 12.8058 100.267 18.8241ZM114.631 76.5858C85.5965 73.803 62.7819 66.2462 45.8244 50.8159C42.4496 53.0105 40.5809 57.7844 42.4775 62.1284C55.1471 67.2672 58.1087 77.9284 61.5177 90.2001L61.5178 90.2004L61.5187 90.2034L61.5194 90.2062C61.7871 91.1698 62.0576 92.1433 62.3357 93.1248C65.1247 103.894 68.8342 110.523 68.8342 110.523C74.6634 121.723 84.8714 132.583 106.068 140.57C92.7859 121.826 99.1558 111.434 105.851 100.512C108.603 96.0219 111.41 91.4424 112.929 86.1562C110.893 87.4911 108.244 88.1246 105.036 88.1699C112.818 86.3146 115.83 82.3779 114.631 76.5858ZM47.6373 67.1285C45.6849 66.5629 43.7605 65.8615 41.9197 65.0923C41.9755 64.6398 42.0591 64.1872 42.1428 63.7574C44.2346 64.7076 46.0475 65.8389 47.6373 67.1285ZM93.8521 57.9654C88.8588 54.8317 84.7168 50.7394 80.5753 46.6475C76.6436 42.7629 72.7122 38.8787 68.0532 35.8155C64.8179 33.6887 60.9132 32.2633 56.897 30.9737C52.6297 36.268 49.1991 42.422 46.6332 48.6439C63.4792 63.6896 87.1305 71.4953 115.663 74.3008C117.057 71.269 118.34 68.2825 119.456 65.3639C110.168 65.5222 101.578 62.8072 93.8521 57.9654ZM80.102 60.4995C80.2973 58.8252 81.1898 57.5356 83.2537 56.8794C82.2775 54.9337 80.6877 53.5762 78.6517 52.6485C85.2339 53.1689 89.8917 57.8071 92.9596 65.7711C88.9713 66.2236 84.7598 65.1602 80.102 60.4995ZM115.021 67.8979C111.256 72.0609 108.439 71.8573 106.068 69.4364C106.911 69.1606 107.787 68.6798 108.711 68.1732C111.121 66.8511 113.854 65.3523 117.141 66.8571C116.332 67.0381 115.607 67.3549 115.021 67.8979ZM125.536 18.8918C135.381 24.8649 140.29 31.1999 143.498 40.3856C145.868 47.1505 135.744 62.5582 127.014 63.5537C115.942 64.8207 105.762 62.0604 96.7807 56.4268C91.7962 53.2986 87.6601 49.2093 83.5259 45.122C79.5868 41.2275 75.6495 37.3347 70.9818 34.2769C66.9295 31.6338 61.8113 30.0538 56.8063 28.5088C49.858 26.3638 43.1281 24.2863 39.7721 19.5253C35.0307 12.7831 50.0638 0.158303 67.5791 0.95018C73.6035 1.22168 78.2613 2.94118 82.1381 5.13581C89.8917 9.50245 98.482 17.8285 100.825 25.34C102.054 29.2692 102.129 34.359 102.203 39.3614C102.332 48.0989 102.457 56.5698 108.718 58.1237C115.997 59.9337 122.914 60.4993 128.13 58.2368C134.935 55.2955 139.063 49.8655 140.681 42.3088C137.919 49.2547 133.792 54.6394 127.405 57.0377C121.464 59.2776 115.523 58.0784 109.889 56.4494C106.264 55.4087 105.064 52.0828 104.73 47.784C110.252 49.4809 121.38 51.5398 124.895 48.6664C125.288 45.9477 126.014 43.1144 126.74 40.2818C128.177 34.6752 129.613 29.0718 128.465 24.3671C127.684 22.444 126.707 20.6113 125.536 18.8918ZM27.7234 62.0831C29.0342 60.6803 30.3172 59.5491 31.4886 58.7119C26.7751 58.0784 22.8704 56.4947 19.4119 54.3453C24.739 56.0648 30.1777 57.1055 35.8674 56.6078C35.979 57.4449 36.2021 58.2594 36.5368 59.0513C35.1144 59.0513 33.7199 58.9834 32.409 58.8477C33.8035 59.8432 35.2538 60.7482 36.7321 61.6079C37.2341 61.5401 37.764 61.4496 38.2939 61.3591C38.6565 62.0378 39.0749 62.6034 39.549 63.0786C39.6885 63.1465 39.821 63.2087 39.9535 63.2709C40.086 63.3331 40.2184 63.3953 40.3578 63.4632C38.6286 58.9608 39.8837 51.9018 46.1591 49.1642L45.7686 48.8248C40.6646 51.1778 37.6246 54.5263 37.9871 59.5264C36.8994 57.0829 36.8436 54.8883 37.7361 52.8973C35.3096 50.5669 32.158 48.8248 28.2533 47.6709C32.2416 47.8067 35.7838 48.8474 38.5449 51.5172C38.5868 51.4606 38.6356 51.3984 38.6844 51.3362L38.6846 51.3359C38.7334 51.2738 38.7821 51.2116 38.8239 51.1552C37.9035 47.1505 35.7559 43.8247 32.6321 40.9739C36.8715 42.9649 39.7164 45.7025 40.3299 49.6167C41.585 48.5533 43.2306 47.5804 45.2108 46.6754C45.1623 38.1578 37.9156 35.8372 30.7002 33.5266C25.4769 31.8539 20.27 30.1865 17.8222 26.1771C17.7979 26.291 17.7725 26.409 17.7462 26.5312L17.7461 26.5321C16.4155 32.7253 12.8262 49.4316 33.8035 53.8023C26.0778 53.5534 19.4956 50.8158 16.5671 44.888C10.5427 47.8972 5.63392 47.2637 0 45.3632C6.3033 55.6123 15.2841 61.5627 27.7234 62.0831ZM66.3519 165.367C69.2805 163.873 72.5158 162.9 75.8069 162.403C86.6285 160.751 97.8405 164.235 99.6255 171.453C100.323 174.281 99.3466 176.996 97.4222 179.326C95.8045 181.272 93.5175 182.992 90.9794 184.281C90.8958 184.304 90.8121 184.349 90.7284 184.394C85.1224 187.155 78.0103 188.241 71.7348 187.403C66.9934 186.747 62.1126 187.539 57.9847 189.621C45.2387 196.092 26.9982 192.834 24.739 183.557C22.7588 175.435 34.4729 167.312 48.3067 167.312C50.2397 167.312 51.3885 167.45 52.4797 167.58C53.4667 167.698 54.4066 167.81 55.8372 167.81C59.5466 167.81 63.2003 166.973 66.3519 165.367ZM84.8435 183.376C85.4013 183.218 85.7918 182.856 85.9591 182.449C86.0986 182.154 86.0986 181.792 85.9312 181.453C85.7081 180.978 85.2618 180.661 84.704 180.525C84.3414 180.458 83.951 180.458 83.5605 180.571C80.2136 181.566 76.3647 181.951 72.9063 181.476C71.9022 181.34 70.9539 181.906 70.7866 182.72C70.6471 183.535 71.3165 184.304 72.3206 184.44C76.4205 184.983 80.9109 184.575 84.8435 183.376ZM94.4379 177.516C94.6331 177.267 94.8283 176.996 94.9957 176.724C95.4419 175.978 95.1073 175.073 94.1869 174.688C93.2944 174.304 92.1787 174.575 91.7046 175.322L91.6887 175.348C91.6839 175.356 91.679 175.364 91.6741 175.373L91.6636 175.391C91.6201 175.466 91.5727 175.547 91.5094 175.616C90.7284 176.724 89.4733 177.788 87.9115 178.715C87.5768 178.919 87.3536 179.168 87.2421 179.462C87.0747 179.915 87.1305 180.412 87.4931 180.82C87.7441 181.114 88.1067 181.295 88.4972 181.385C89.0271 181.498 89.6128 181.43 90.0869 181.159C91.8998 180.096 93.378 178.851 94.4379 177.516ZM53.1876 164.62C57.0365 165.14 61.0249 164.507 64.3996 162.81C67.1608 161.407 70.173 160.412 73.2689 159.778C73.9383 159.643 74.6076 159.529 75.277 159.416C73.8267 158.217 72.0975 157.222 70.2009 156.43C63.8139 153.737 55.4188 153.33 48.5019 155.321C43.9557 156.633 38.9633 156.543 34.5008 155.095C26.6077 152.516 16.3439 153.059 9.34338 157.131C1.25507 161.837 0.948275 169.417 8.53455 174.462C11.9093 176.724 16.3997 178.172 21.3085 178.648C24.3207 168.874 39.6885 162.81 53.1876 164.62ZM11.9372 163.263C11.2678 163.896 10.0964 163.941 9.34338 163.398C8.59033 162.855 8.50666 161.905 9.17603 161.271C12.5508 158.149 19.3283 155.841 27.3887 156.679C28.3927 156.792 29.1179 157.538 28.9784 158.353C28.839 159.167 27.9186 159.756 26.9145 159.665C20.1371 158.964 14.5032 160.864 11.9372 163.263ZM66.0173 109.075L66.1846 109.415C71.4002 119.754 79.6 129.777 94.5773 137.312C95.9608 148.512 102.511 158.883 108.028 167.618C113.41 176.141 117.809 183.106 115.467 187.765C111.2 186.204 106.849 184.326 102.526 182.109C102.061 181.883 101.597 181.637 101.132 181.39C100.899 181.267 100.667 181.144 100.434 181.023C104.59 175.955 104.423 170.231 100.49 165.887C95.9719 160.887 87.6326 158.692 79.6837 159.009C76.6157 155.683 71.8464 153.307 66.4635 152.063L64.5391 149.62C56.0324 138.579 50.5379 127.221 45.3781 111.7L45.378 111.7C45.0713 110.568 44.7645 109.437 44.4856 108.284C45.8244 108.329 47.1353 108.284 48.4461 108.148C46.8006 105.161 45.5176 102.13 44.653 99.0751C44.653 99.0751 43.2863 93.17 43.2863 90.7717C43.2306 89.6857 43.2584 88.5997 43.3142 87.4911C42.6449 87.3101 41.9476 87.1743 41.2503 87.0838C40.9714 82.4683 40.8877 78.6899 41.1109 73.8029C44.8482 74.0291 50.9005 76.45 54.0243 79.7985C51.0678 74.8437 39.9673 68.9837 32.7158 72.0155C26.4125 74.6626 25.6036 82.6493 31.6838 86.8123C29.4247 87.0386 26.3567 87.8983 24.2649 89.188C29.9546 88.102 35.6722 87.6268 41.3619 88.3735C40.3578 94.9121 42.3938 100.908 45.8802 106.655C40.5252 106.745 36.3694 105.478 34.9191 101.066C34.5844 98.7584 35.2259 96.4732 36.5368 94.1655C31.7117 97.7629 29.3968 103.193 28.9505 109.958C20.2207 107.107 20.2207 101.428 24.5717 95.704C20.9738 97.8081 18.631 100.591 17.2643 103.894C11.9372 100.161 11.0447 95.9755 19.7466 90.817C18.6867 90.9301 17.599 91.2468 16.6228 91.6541C13.2481 82.3099 24.8227 64.8434 31.8512 60.2731C37.3456 64.2777 43.5931 67.1964 50.6774 68.8254C53.1875 71.8119 54.6379 76.0654 55.7535 79.3687C56.6331 82.0034 57.4512 84.813 58.3011 87.7317C58.8525 89.6251 59.4172 91.5645 60.0208 93.532C60.0208 93.532 62.6704 103.125 66.0173 109.075Z" fill="#252525"/>
<path fill-rule="evenodd" clip-rule="evenodd" d="M193.31 50.4992C192.39 50.4992 191.47 51.2006 191.47 51.902C191.47 52.6033 192.39 53.3726 193.282 53.35C194.175 53.35 195.067 52.6712 195.067 51.9698C195.067 51.2232 194.231 50.5218 193.31 50.4992ZM179.505 85.8168C179.114 84.2557 178.612 82.7625 177.664 81.3597C175.767 78.6221 172.727 77.6266 169.073 77.9886C165.922 78.3053 163.802 79.9117 162.352 82.1289C161.894 82.8277 161.532 83.5557 161.171 84.2809C160.983 84.6594 160.796 85.0372 160.595 85.4096C160.539 85.1607 160.539 84.9118 160.539 84.6856V79.2782C160.539 78.5768 160.288 78.4184 159.423 78.4637C158.544 78.5231 158.563 78.9986 158.581 79.4652L158.581 79.4653C158.584 79.5317 158.587 79.598 158.587 79.6628V189.168C158.587 190.164 158.838 190.503 159.563 190.503C160.344 190.503 160.539 190.254 160.539 189.191V155.208V154.348C160.567 154.348 160.595 154.343 160.623 154.337C160.65 154.331 160.678 154.326 160.706 154.326C160.748 154.427 160.797 154.529 160.846 154.631C160.894 154.733 160.943 154.835 160.985 154.936C161.487 156.181 162.129 157.38 162.993 158.489C165.448 161.543 169.157 162.493 173.285 161.452C175.99 160.774 177.496 159.032 178.445 156.995C179.7 154.371 180.09 151.633 180.118 148.85C180.146 131.094 180.146 113.339 180.146 95.5828V95.5682C180.141 94.9803 180.143 94.3908 180.146 93.8004C180.156 91.142 180.166 88.4643 179.505 85.8168ZM178.417 146.837V146.837C178.417 148.398 178.417 149.959 178.222 151.497C177.915 153.76 177.385 155.955 175.935 157.991C174.568 159.914 171.137 160.796 168.822 160.321C165.699 159.688 164.109 157.878 162.882 155.728C161.961 154.122 161.487 152.38 161.125 150.638C160.678 148.466 160.511 146.294 160.511 144.076C160.53 138.677 160.523 133.278 160.517 127.878V127.877C160.514 125.177 160.511 122.477 160.511 119.777H160.539C160.539 117.334 160.533 114.89 160.526 112.445C160.51 105.922 160.493 99.3927 160.595 92.8759C160.65 89.6405 161.404 86.4503 163.189 83.4865C163.746 82.5588 164.499 81.7443 165.392 80.9977C168.181 78.6221 174.345 78.5768 176.52 82.6267C177.608 84.663 178.222 86.8123 178.277 89.0296C178.553 101.723 178.502 114.407 178.451 127.095V127.095V127.095V127.095V127.095V127.095V127.096V127.096V127.096V127.096V127.096V127.097C178.424 133.675 178.398 140.255 178.417 146.837ZM254.949 78.4865C254.112 78.4638 253.861 78.5996 253.861 79.3236C253.861 80.2249 253.688 81.1262 253.518 82.0145L253.518 82.0146C253.483 82.1967 253.448 82.3781 253.415 82.559C253.248 83.464 253.122 84.3746 252.997 85.2853C252.871 86.196 252.746 87.1066 252.578 88.0116C252.308 89.4578 252.116 90.9464 251.927 92.4159L251.909 92.5593C251.737 93.8927 251.529 95.2262 251.321 96.5636C251.159 97.6089 250.996 98.6567 250.849 99.7088C250.733 100.533 250.625 101.358 250.517 102.181L250.517 102.182L250.517 102.182L250.517 102.183L250.517 102.183L250.517 102.184L250.516 102.184L250.516 102.185L250.516 102.185L250.516 102.186L250.516 102.186L250.516 102.186L250.516 102.187C250.259 104.142 250.003 106.094 249.65 108.035C249.393 109.433 249.193 110.839 248.993 112.247L248.993 112.247L248.993 112.248L248.993 112.248L248.993 112.248L248.993 112.248L248.993 112.248L248.993 112.248L248.993 112.249L248.993 112.249L248.993 112.249L248.993 112.249L248.992 112.249C248.824 113.437 248.655 114.628 248.45 115.818C248.06 118.103 247.753 120.388 247.446 122.673C247.242 124.227 247.012 125.781 246.783 127.335C246.668 128.111 246.554 128.888 246.442 129.664C246.135 131.904 245.801 134.167 245.438 136.407C245.174 138.122 244.925 139.841 244.676 141.56L244.676 141.563C244.347 143.835 244.018 146.109 243.653 148.375C243.357 150.25 243.117 152.137 242.873 154.05C242.772 154.838 242.671 155.631 242.565 156.43C242.51 156.317 242.482 156.271 242.454 156.226C242.211 155.687 242.203 155.132 242.196 154.575V154.575C242.19 154.175 242.185 153.773 242.091 153.375C241.862 152.476 241.777 151.565 241.692 150.658C241.653 150.243 241.614 149.828 241.561 149.416C241.508 148.981 241.451 148.543 241.395 148.104L241.394 148.103L241.394 148.102L241.394 148.101L241.394 148.101L241.394 148.1L241.394 148.099L241.394 148.099L241.394 148.098C241.274 147.172 241.154 146.241 241.059 145.321C241.035 145.043 241.021 144.762 241.006 144.482C240.969 143.782 240.932 143.081 240.753 142.402C240.505 141.46 240.426 140.507 240.348 139.558V139.557C240.312 139.117 240.276 138.677 240.223 138.239C240.184 137.94 240.145 137.639 240.105 137.337L240.104 137.333C239.97 136.314 239.834 135.286 239.749 134.257C239.728 134.031 239.71 133.805 239.693 133.578C239.64 132.9 239.588 132.221 239.442 131.542C239.136 130.022 238.974 128.492 238.813 126.965C238.739 126.265 238.665 125.565 238.577 124.868C238.27 122.628 238.019 120.366 237.768 118.104V118.104L237.768 118.103C237.647 117.013 237.489 115.923 237.331 114.83L237.331 114.83L237.331 114.83L237.331 114.83L237.331 114.83L237.331 114.83L237.331 114.83L237.331 114.83L237.331 114.829L237.331 114.829L237.331 114.829L237.331 114.829C237.125 113.406 236.918 111.98 236.792 110.546C236.729 109.76 236.629 108.982 236.529 108.202L236.529 108.201C236.454 107.612 236.378 107.022 236.318 106.428C236.297 106.18 236.281 105.929 236.266 105.679C236.219 104.928 236.172 104.177 235.983 103.465C235.739 102.522 235.658 101.566 235.578 100.617C235.548 100.268 235.519 99.9197 235.481 99.573C235.428 99.13 235.371 98.6845 235.314 98.2383C235.194 97.2946 235.074 96.3471 234.979 95.41C234.958 95.1725 234.941 94.9349 234.923 94.6974C234.871 93.9847 234.819 93.272 234.672 92.5593C234.42 91.3071 234.284 90.0478 234.148 88.7894V88.7894V88.7893V88.7892V88.7892V88.7891V88.7891V88.789V88.789V88.7889V88.7888V88.7888V88.7887C234.043 87.819 233.938 86.8498 233.78 85.8849C233.516 84.2848 233.37 82.6727 233.224 81.0574L233.224 81.0566L233.224 81.0559L233.224 81.0551L233.224 81.0545C233.169 80.4552 233.115 79.8555 233.055 79.2557C233.027 79.12 232.999 78.9842 232.943 78.8711C232.683 78.4284 232.206 78.4767 231.758 78.522C231.725 78.5253 231.693 78.5286 231.66 78.5317C231.298 78.5543 231.075 78.7806 231.158 79.0295C231.372 79.5886 231.392 80.1635 231.412 80.7401C231.426 81.1435 231.44 81.5477 231.521 81.9481C231.717 82.8621 231.811 83.7853 231.904 84.7059C231.956 85.2211 232.009 85.7354 232.079 86.2469C232.211 87.1352 232.317 88.0339 232.424 88.9359C232.475 89.3664 232.527 89.7976 232.581 90.2289C232.663 90.8442 232.746 91.454 232.829 92.0637L232.829 92.0659L232.832 92.0841C232.915 92.7007 232.999 93.3172 233.083 93.9394C233.234 95.1693 233.386 96.4048 233.538 97.6403L233.538 97.6411L233.543 97.6838L233.548 97.7266C233.7 98.9624 233.851 100.198 234.003 101.428C234.116 102.361 234.238 103.29 234.359 104.218C234.539 105.586 234.718 106.954 234.868 108.329C235.007 109.528 235.147 110.705 235.314 111.904C235.371 112.285 235.396 112.67 235.42 113.054V113.054C235.455 113.605 235.489 114.154 235.621 114.687C235.861 115.678 235.958 116.669 236.055 117.669C236.093 118.061 236.131 118.454 236.179 118.85C236.318 120.094 236.485 121.361 236.653 122.628C236.693 122.975 236.715 123.323 236.737 123.67C236.776 124.296 236.816 124.921 236.959 125.547C237.203 126.608 237.306 127.685 237.408 128.752C237.435 129.027 237.461 129.301 237.489 129.574C237.629 130.841 237.768 132.085 237.964 133.352C238.083 134.206 238.181 135.063 238.28 135.922C238.434 137.272 238.59 138.627 238.828 139.981C239.068 141.36 239.211 142.758 239.352 144.15C239.424 144.86 239.496 145.568 239.581 146.271C239.656 146.844 239.742 147.417 239.829 147.991C240.003 149.137 240.176 150.283 240.251 151.43C240.314 152.176 240.414 152.915 240.513 153.655L240.513 153.656L240.513 153.656L240.513 153.657L240.514 153.657L240.514 153.658C240.589 154.218 240.665 154.779 240.725 155.344C240.78 155.808 240.822 156.271 240.864 156.735C240.906 157.199 240.948 157.663 241.004 158.127C241.058 158.563 241.131 158.998 241.204 159.433L241.204 159.433L241.204 159.433L241.204 159.434L241.204 159.434L241.204 159.434L241.204 159.434L241.204 159.434L241.204 159.434L241.204 159.435L241.204 159.435L241.204 159.435C241.429 160.781 241.654 162.127 241.338 163.511C241.079 164.65 240.937 165.816 240.796 166.977L240.795 166.977C240.754 167.316 240.713 167.654 240.669 167.991C240.363 170.341 240 172.691 239.638 175.04L239.638 175.041L239.638 175.042L239.638 175.043L239.638 175.044L239.638 175.044L239.638 175.045L239.638 175.046L239.637 175.047L239.637 175.048L239.637 175.049L239.637 175.049L239.637 175.05C239.471 176.169 239.323 177.289 239.175 178.406L239.175 178.407L239.175 178.407L239.175 178.407L239.175 178.408L239.175 178.408L239.175 178.408L239.175 178.409L239.175 178.409L239.175 178.409L239.175 178.41L239.175 178.41C238.949 180.116 238.724 181.818 238.438 183.512C238.354 183.976 238.298 184.44 238.242 184.903C238.187 185.367 238.131 185.831 238.047 186.295C237.824 187.426 237.657 188.58 237.517 189.711C237.461 190.118 237.461 190.548 238.187 190.594C238.856 190.639 239.107 190.367 239.246 189.892C239.529 188.746 239.678 187.59 239.826 186.431L239.826 186.43C239.912 185.76 239.999 185.088 240.111 184.417C240.474 182.2 240.78 179.982 241.087 177.765C241.199 176.996 241.314 176.226 241.428 175.457L241.428 175.456C241.658 173.918 241.887 172.38 242.091 170.842C242.217 169.904 242.356 168.971 242.496 168.039L242.496 168.038L242.496 168.038L242.496 168.038L242.496 168.038L242.496 168.038L242.496 168.037L242.496 168.037L242.496 168.037L242.496 168.037L242.496 168.037L242.496 168.036C242.635 167.103 242.775 166.17 242.9 165.231C243.057 164.133 243.235 163.041 243.414 161.952C243.584 160.909 243.754 159.868 243.904 158.828C244.025 157.961 244.137 157.093 244.248 156.226L244.248 156.226L244.248 156.225L244.248 156.225L244.249 156.224L244.249 156.224L244.249 156.223L244.249 156.223L244.249 156.222L244.249 156.222L244.249 156.221L244.249 156.221C244.472 154.488 244.695 152.755 244.992 151.022C245.043 150.714 245.068 150.403 245.093 150.092V150.092C245.136 149.558 245.178 149.026 245.355 148.511C245.578 147.816 245.652 147.11 245.727 146.401C245.764 146.049 245.801 145.696 245.857 145.344C245.907 145 245.961 144.654 246.014 144.307L246.015 144.305C246.138 143.51 246.262 142.707 246.359 141.904L246.374 141.745C246.383 141.659 246.391 141.572 246.399 141.486C246.465 140.788 246.531 140.091 246.693 139.393C246.982 138.115 247.151 136.825 247.319 135.54L247.319 135.54C247.395 134.96 247.471 134.381 247.558 133.805C247.596 133.56 247.635 133.315 247.674 133.068C247.809 132.22 247.946 131.361 248.032 130.501C248.116 129.687 248.199 128.872 248.367 128.058C248.744 126.221 249.002 124.367 249.258 122.525L249.258 122.523L249.259 122.518C249.305 122.185 249.352 121.852 249.399 121.519C249.65 119.755 249.901 117.99 250.18 116.225C250.236 115.843 250.305 115.464 250.374 115.086L250.374 115.086C250.51 114.343 250.645 113.604 250.682 112.854C250.741 112.088 250.869 111.333 250.999 110.573L250.999 110.573L250.999 110.573L250.999 110.573L250.999 110.573L250.999 110.572L250.999 110.572L250.999 110.572L250.999 110.572L250.999 110.572L250.999 110.571L250.999 110.571V110.571V110.571V110.571V110.571C251.053 110.255 251.107 109.938 251.156 109.619C251.196 109.322 251.222 109.026 251.248 108.73C251.293 108.212 251.338 107.693 251.463 107.175C251.685 106.308 251.79 105.429 251.894 104.555L251.894 104.555C251.934 104.22 251.974 103.887 252.02 103.555C252.054 103.302 252.087 103.049 252.119 102.796L252.119 102.794C252.219 102.008 252.319 101.225 252.467 100.455C252.688 99.2603 252.86 98.0553 253.032 96.8535L253.032 96.8533L253.032 96.8525L253.032 96.8518C253.12 96.234 253.209 95.6171 253.303 95.0028C253.511 93.714 253.694 92.4148 253.877 91.1122L253.877 91.1118L253.877 91.1115L253.877 91.1112L253.877 91.1108L253.877 91.1105L253.877 91.1101L253.877 91.1097L253.877 91.1093L253.877 91.1089L253.877 91.1085L253.877 91.1081C253.964 90.4912 254.051 89.8736 254.14 89.256C254.307 88.1419 254.477 87.0279 254.647 85.9138L254.648 85.9132L254.648 85.9125L254.648 85.9119L254.648 85.9113L254.648 85.9107L254.648 85.91L254.648 85.9094L254.648 85.9088L254.648 85.9081L254.648 85.9075L254.648 85.9069L254.648 85.9068C254.989 83.6747 255.33 81.4426 255.646 79.2105C255.702 78.7127 255.507 78.5091 254.949 78.4865ZM226.221 132.04V132.651C226.221 135.159 226.214 137.674 226.207 140.191C226.201 142.713 226.194 145.239 226.194 147.764C226.221 150.366 225.998 152.946 225.162 155.48C224.492 157.471 223.46 159.326 221.313 160.616C219.054 161.95 216.515 162.109 213.866 161.634C210.547 161.023 208.818 159.077 207.73 156.633C206.698 154.326 206.335 151.95 206.335 149.507V119.664H206.363C206.363 116.685 206.359 113.704 206.354 110.723C206.343 103.265 206.331 95.8021 206.391 88.351C206.419 85.8848 207.144 83.4639 208.734 81.2919C210.324 79.1199 212.75 78.0113 215.846 77.9434C220.894 77.8303 223.488 80.2059 224.827 83.3056C225.803 85.636 226.166 88.0568 226.166 90.523V107.424C226.166 108.171 225.97 108.329 225.162 108.284C224.687 108.261 224.436 108.057 224.381 107.718C224.325 107.447 224.325 107.152 224.325 106.858C224.325 105.316 224.328 103.773 224.332 102.229V102.227V102.225V102.222V102.22V102.218V102.216V102.214V102.212V102.21V102.208V102.206V102.206V102.206V102.206V102.206V102.206V102.205V102.205V102.205V102.205C224.342 97.5493 224.353 92.8872 224.269 88.2378C224.241 86.0658 223.572 83.9617 222.149 82.0838C220.783 80.2512 218.747 79.3462 216.125 79.3688C213.252 79.3914 211.188 80.5453 209.905 82.6042C208.901 84.2558 208.427 86.0206 208.204 87.8532C207.807 91.0233 207.862 94.2049 207.917 97.3816C207.939 98.6713 207.961 99.9602 207.953 101.247C207.897 117.175 207.897 133.126 207.981 149.054C207.981 151.588 208.371 154.167 209.654 156.543C210.435 157.968 211.439 159.235 213.28 159.937C216.32 161.091 219.918 160.321 221.703 158.195C223.014 156.633 223.683 154.891 224.046 153.059C224.504 150.644 224.453 148.229 224.401 145.814V145.814C224.378 144.699 224.354 143.585 224.381 142.47C224.44 140.112 224.429 137.765 224.418 135.413V135.413V135.413V135.413V135.413V135.413V135.413V135.413V135.413V135.413V135.413C224.413 134.471 224.409 133.528 224.409 132.583C224.409 131.701 224.687 131.452 225.496 131.474C225.943 131.497 226.221 131.655 226.221 132.04ZM147.876 134.619C146.72 130.804 145.069 127.109 143.412 123.402L143.107 122.718C142.466 121.286 141.802 119.86 141.139 118.435C139.813 115.584 138.487 112.733 137.334 109.822C135.8 105.976 134.656 102.039 134.126 98.0345C133.903 96.315 133.764 94.5728 133.736 92.8533C133.68 90.2741 133.792 87.7174 134.349 85.1608C134.684 83.6449 135.27 82.2422 136.525 81.0657C139.175 78.5769 143.609 78.871 145.506 81.6765C146.064 82.4911 146.426 83.3961 146.649 84.3011C147.151 86.2921 147.291 88.3057 147.319 90.3193C147.374 94.0525 147.347 97.8082 147.319 101.541C147.319 101.994 147.402 102.311 148.1 102.333C148.797 102.333 149.02 102.062 148.992 101.541C148.918 99.5277 148.953 97.514 148.987 95.5015V95.5015V95.5014C149.044 92.2229 149.1 88.9477 148.685 85.6812C148.462 83.8938 147.932 82.1743 146.789 80.6358C145.701 79.1878 144.083 78.1923 141.964 78.0339C138.449 77.7398 135.8 78.9163 134.098 81.4503C132.648 83.6223 132.118 85.9753 132.09 88.3962C132.007 92.4235 131.979 96.4281 132.788 100.433C133.262 102.808 133.847 105.184 134.6 107.514C135.577 110.456 136.888 113.306 138.198 116.157C138.68 117.222 139.167 118.284 139.654 119.347C142.044 124.562 144.433 129.772 146.147 135.185C146.817 137.334 147.43 139.506 147.625 141.701L147.658 142.044C147.955 145.143 148.252 148.242 147.849 151.362C147.8 151.763 147.765 152.166 147.73 152.569L147.73 152.569C147.625 153.778 147.521 154.987 147.04 156.158C146.147 158.376 144.641 159.959 141.573 160.434C139.147 160.796 136.107 159.914 134.768 157.968C133.652 156.339 133.206 154.552 133.094 152.742C132.998 150.704 133.022 148.666 133.045 146.636C133.056 145.736 133.067 144.837 133.067 143.941H133.039V134.868C133.039 134.302 132.788 134.008 132.035 133.986C131.281 133.986 131.198 134.348 131.198 134.823C131.198 135.959 131.197 137.094 131.196 138.23C131.191 142.773 131.187 147.316 131.254 151.86C131.281 154.099 131.839 156.271 133.067 158.376C135.744 162.946 143.944 163.149 147.207 159.077C148.853 157.018 149.522 154.733 149.606 152.38L149.627 151.753C149.762 147.729 149.898 143.687 149.076 139.665C148.713 137.9 148.351 136.248 147.876 134.619ZM193.282 78.4638C193.757 78.4638 194.091 78.5995 194.091 79.0294C194.091 79.3009 194.091 79.5724 194.119 79.8213V119.868V159.982V160.706C194.091 161.136 193.757 161.249 193.282 161.249C192.808 161.249 192.446 161.158 192.446 160.706V160.05V79.6629V79.0068C192.474 78.5769 192.808 78.4638 193.282 78.4638ZM289.813 94.686C289.813 94.9423 289.812 95.1987 289.812 95.4553C289.868 112.198 289.84 128.94 289.812 145.683L289.812 145.927L289.813 146.186C289.815 147.692 289.818 149.197 289.617 150.683C289.199 153.647 288.641 156.634 286.242 159.1C284.82 160.548 283.035 161.453 280.776 161.86C275.504 162.81 271.181 160.344 269.061 157.086C268.95 156.905 268.81 156.747 268.559 156.588V157.358V189.87C268.559 191.046 268.559 191.069 267.109 191.069C266.431 191.069 265.751 191.066 265.068 191.064L265.062 191.064H265.056H265.049H265.043C263.655 191.059 262.258 191.054 260.862 191.069C260.136 191.069 259.802 190.843 259.858 190.232C259.876 190.096 259.87 189.96 259.864 189.824C259.861 189.757 259.858 189.689 259.858 189.621V79.4593C259.858 77.9208 259.858 77.9208 261.726 77.9208H266.077C267.611 77.9208 267.611 77.9208 267.611 79.12V84.9799C268.643 82.4911 269.898 80.2738 272.38 78.758C274.835 77.2647 277.568 76.8122 280.608 77.2647C284.931 77.9208 287.107 80.2965 288.362 83.4413C288.892 84.731 289.171 86.0659 289.394 87.4007C289.823 89.8364 289.818 92.2536 289.813 94.6858V94.686ZM281.082 146.087L281.082 145.841C281.138 128.284 281.138 110.705 281.054 93.1701C281.054 91.1565 281.054 89.1202 280.246 87.1745C279.827 86.179 279.381 85.2061 278.321 84.5274C276.09 83.1246 272.994 83.5092 271.349 85.3645C269.312 87.6722 268.699 90.3646 268.671 93.0796C268.57 99.5138 268.586 105.96 268.603 112.401V112.401V112.401V112.401V112.402V112.402V112.402V112.404V112.407V112.409V112.411V112.414V112.416C268.609 114.825 268.615 117.234 268.615 119.641C268.615 122.435 268.618 125.232 268.621 128.029V128.035V128.04V128.045V128.05V128.055V128.06V128.065V128.07V128.076V128.081V128.086V128.092C268.628 133.702 268.634 139.319 268.615 144.936C268.615 146.746 268.922 148.534 269.424 150.276C269.787 151.611 270.372 152.855 271.432 153.964C272.994 155.593 275.978 156 278.07 154.846C279.676 153.941 280.113 152.519 280.548 151.106L280.58 151C281.085 149.405 281.084 147.729 281.082 146.087ZM438.107 78.8711C438.079 78.1018 437.856 77.9435 436.908 77.9435H430.967C429.957 77.9435 429.485 77.9434 429.264 78.179C429.07 78.3859 429.07 78.7746 429.07 79.5046V141.724C429.07 144.439 428.931 147.154 428.038 149.778C427.453 151.475 426.755 153.127 425.054 154.371C423.771 155.276 421.596 155.547 420.034 155.004C418.5 154.461 417.942 153.353 417.551 152.176C416.966 150.434 416.91 148.624 416.91 146.814C416.882 130.158 416.882 113.524 416.882 96.8674V96.8128V78.9163C416.882 78.0339 416.771 77.9435 415.711 77.9435H409.547C408.431 77.9435 408.292 78.0792 408.292 79.0068C408.323 87.982 408.304 96.9571 408.285 105.932C408.253 121.121 408.221 136.309 408.431 151.498C408.459 153.489 408.905 155.412 409.798 157.267C410.718 159.167 412.169 160.683 414.595 161.43C416.547 162.018 418.5 162.244 420.619 161.86C422.879 161.453 424.664 160.593 426.225 159.258C427.843 157.855 428.931 156.204 429.963 154.303C430.13 154.959 430.186 155.412 430.186 155.887C430.186 156.387 430.189 156.888 430.192 157.388L430.192 157.403C430.198 158.413 430.205 159.424 430.186 160.434C430.158 161.091 430.465 161.294 431.246 161.272C432.399 161.257 433.551 161.262 434.704 161.267L434.709 161.267C435.284 161.269 435.859 161.272 436.434 161.272C437.328 161.272 437.745 161.272 437.938 161.064C438.107 160.883 438.107 160.546 438.107 159.914V79.4593V78.8711ZM394.96 78.1471C397.135 79.1426 398.167 80.8395 398.865 82.6721C399.729 84.9346 399.98 87.2877 399.98 89.6407V160.072C399.98 160.616 399.98 160.908 399.835 161.066C399.665 161.249 399.297 161.249 398.502 161.249H392.506C391.278 161.249 391.25 161.226 391.25 160.253V152.38C391.25 131.588 391.25 110.818 391.223 90.0253C391.223 88.532 390.888 87.0614 390.107 85.7039C389.465 84.5953 388.406 83.9391 386.816 83.9165C383.832 83.8939 381.572 85.1383 380.317 87.6497C379.202 89.8443 378.616 92.1294 378.588 94.5051C378.396 108.037 378.423 121.57 378.449 135.102C378.464 143.222 378.48 151.342 378.449 159.462V160.253C378.421 161.181 378.365 161.249 377.221 161.249H370.974C369.858 161.249 369.83 161.226 369.83 160.299V131.112V79.2331V78.8259C369.83 77.9888 369.942 77.8982 370.946 77.8982H376.217C377.166 77.8982 377.389 78.0793 377.417 78.8485C377.45 79.4186 377.454 79.9968 377.457 80.5734C377.459 80.9579 377.461 81.3417 377.472 81.7219C377.486 81.9821 377.507 82.2366 377.528 82.4911C377.549 82.7457 377.57 83.0002 377.584 83.2604C377.603 83.608 377.596 83.9455 377.59 84.2796V84.2802C377.587 84.4461 377.584 84.6112 377.584 84.7763C377.64 84.7989 377.723 84.7989 377.807 84.7989C378.504 83.5319 379.285 82.3101 380.289 81.2015C382.158 79.1426 384.557 77.7851 387.736 77.31C390.302 76.948 392.701 77.1064 394.96 78.1471ZM358.591 83.5545C357.084 79.8213 352.957 77.2421 348.076 77.1289C346.096 77.0837 344.143 77.1968 342.219 77.6267C339.485 78.2376 337.394 79.4819 335.888 81.4051C333.656 84.2332 332.987 87.4686 332.875 90.704C332.756 94.453 332.779 98.202 332.801 101.951V101.952C332.81 103.452 332.82 104.951 332.82 106.451C332.82 107.288 332.987 107.424 334.019 107.424H339.876C341.242 107.424 341.243 107.401 341.27 106.317L341.27 106.315C341.332 104.161 341.296 102.005 341.26 99.8468V99.8464C341.198 96.1112 341.135 92.3736 341.577 88.6451C341.689 87.6722 341.996 86.7446 342.526 85.8396C343.53 84.0975 345.342 83.7581 347.462 83.9165C349.191 84.0522 350.084 84.9798 350.67 86.2016C351.311 87.5817 351.534 89.075 351.562 90.523C351.596 94.9349 351.599 99.3387 351.602 103.744V103.745V103.745V103.746C351.605 106.682 351.607 109.619 351.618 112.56C351.618 113.216 351.395 113.442 350.558 113.442C347.992 113.397 345.426 113.42 342.888 113.917C337.422 114.958 334.354 117.877 332.931 122.085C332.122 124.483 331.955 126.995 331.927 129.483C331.867 132.747 331.879 135.998 331.89 139.255V139.255V139.256V139.256L331.89 139.267C331.895 140.567 331.899 141.868 331.899 143.172C331.899 146.384 332.039 149.597 332.513 152.81C332.792 154.665 333.322 156.43 334.354 158.104C335.358 159.733 336.78 161.091 338.983 161.679C340.768 162.154 342.609 162.199 344.478 161.837C346.207 161.498 347.685 160.887 348.94 159.846C350.642 158.398 351.478 156.611 352.259 154.642C352.259 155.332 352.263 156.005 352.266 156.668C352.272 157.965 352.278 159.222 352.259 160.48C352.259 161.091 352.538 161.294 353.263 161.294C354.546 161.279 355.829 161.284 357.112 161.289C357.754 161.292 358.395 161.294 359.037 161.294C360.208 161.294 360.236 161.249 360.236 160.321V92.2877C360.18 89.3012 359.734 86.4052 358.591 83.5545ZM351.534 139.959C351.423 143.579 351.172 147.199 350.084 150.751C349.721 151.882 349.247 153.013 348.466 154.009C346.849 156.023 343.781 156.045 342.191 154.032C341.215 152.81 340.852 151.407 340.629 150.004C340.179 147.347 340.24 144.68 340.295 142.283V142.282V142.282V142.282C340.325 140.965 340.354 139.731 340.294 138.624C340.294 137.245 340.286 135.965 340.278 134.754L340.278 134.751V134.75C340.261 132.128 340.246 129.827 340.322 127.538C340.406 125.637 340.824 123.737 342.33 122.153C343.725 120.66 345.705 120.094 347.908 119.913C348.167 119.894 348.426 119.871 348.686 119.848C349.349 119.79 350.016 119.732 350.698 119.732C351.395 119.732 351.59 119.936 351.59 120.479C351.571 122.153 351.578 123.827 351.584 125.501C351.587 126.338 351.59 127.176 351.59 128.013C351.58 129.461 351.584 130.909 351.589 132.357C351.597 134.891 351.605 137.425 351.534 139.959ZM320.606 131.049C321.975 131.054 323.353 131.059 324.731 131.044C325.457 131.044 325.763 131.248 325.819 131.881C325.809 133.833 325.81 135.784 325.811 137.736C325.814 140.988 325.816 144.241 325.763 147.493C325.708 150.457 325.15 153.375 323.644 156.113C321.998 159.099 319.237 161.068 315.249 161.747C313.268 162.086 311.288 162.131 309.224 161.882C303.423 161.204 300.355 158.217 298.654 153.986C298.082 152.535 297.865 151.029 297.647 149.518C297.62 149.333 297.593 149.148 297.566 148.963C297.223 146.757 297.259 144.539 297.295 142.326V142.326V142.326C297.309 141.475 297.323 140.626 297.315 139.778C297.273 134.738 297.278 129.698 297.284 124.658C297.285 122.979 297.287 121.299 297.287 119.619C297.287 117.345 297.284 115.071 297.28 112.795C297.27 105.967 297.259 99.1322 297.343 92.3102C297.371 89.369 297.901 86.4277 299.351 83.6675C301.052 80.4773 303.758 78.2601 307.997 77.4682C311.846 76.7668 315.611 77.0157 319.07 78.7352C321.496 79.9569 322.974 81.8122 323.978 83.939C325.206 86.5635 325.708 89.3011 325.736 92.084C325.777 99.0915 325.772 106.099 325.767 113.106C325.765 115.443 325.763 117.78 325.763 120.116C325.763 121.067 325.708 121.112 324.48 121.112H307.439C306.351 121.112 306.324 121.112 306.324 121.994C306.334 125.319 306.333 128.647 306.331 131.976V131.977V131.977C306.329 137.527 306.327 143.08 306.379 148.624C306.407 150.366 306.854 152.086 307.969 153.647C309.364 155.593 312.487 156.09 314.551 154.71C315.611 153.986 316.141 153.013 316.504 151.973C317.006 150.502 317.313 149.009 317.313 147.493C317.34 142.334 317.34 137.198 317.34 132.062C317.34 131.067 317.368 131.044 318.568 131.044C319.244 131.044 319.924 131.047 320.606 131.049ZM308.443 84.9571C306.798 86.4956 306.435 88.3961 306.379 90.2966C306.268 93.5546 306.299 96.8126 306.33 100.071C306.338 100.885 306.346 101.7 306.351 102.514H306.324V115.003C306.324 115.818 306.351 115.863 307.383 115.863C308.388 115.863 309.389 115.86 310.388 115.858H310.391H310.394H310.395C312.39 115.853 314.377 115.848 316.364 115.863C317.062 115.886 317.34 115.705 317.34 115.116C317.329 111.912 317.327 108.709 317.325 105.505C317.321 100.699 317.318 95.8939 317.285 91.0885C317.285 89.2785 316.866 87.5137 315.918 85.8395C314.496 83.3507 310.647 82.8982 308.443 84.9571ZM498.63 137.696C498.435 136.226 498.212 134.755 497.821 133.307C497.096 130.569 496.036 127.922 494.614 125.343C493.571 123.465 492.304 121.677 491.04 119.894L491.04 119.893C490.309 118.863 489.58 117.834 488.896 116.791C488.458 116.127 488.001 115.474 487.545 114.821L487.545 114.821L487.544 114.821C486.662 113.56 485.782 112.303 485.047 110.976C483.681 108.533 482.509 106.021 481.812 103.374L481.745 103.119C481.403 101.821 481.055 100.505 481.003 99.1884C480.864 95.8172 480.892 92.4235 480.975 89.0523C481.003 87.7627 481.477 86.5183 482.342 85.3871C483.82 83.464 486.386 83.0793 488.255 84.5047C489.175 85.2287 489.538 86.179 489.844 87.1745C490.264 88.4935 490.289 89.8326 490.314 91.154V91.1543L490.319 91.4054C490.36 94.1031 490.355 96.8135 490.35 99.5175V99.5207C490.348 100.421 490.346 101.321 490.346 102.22C490.346 103.329 490.458 103.419 491.769 103.419H496.957C498.267 103.419 498.407 103.306 498.407 102.22C498.407 101.245 498.411 100.269 498.416 99.2916V99.2892V99.2885C498.427 96.8412 498.439 94.389 498.379 91.9484L498.379 91.9444C498.323 89.2985 498.267 86.6302 497.263 84.0522C496.566 82.2648 495.534 80.6358 493.805 79.3688C492.271 78.2376 490.43 77.6493 488.366 77.3099C486.219 76.9479 484.155 77.0611 482.119 77.4683C478.047 78.2828 475.453 80.4774 473.891 83.5545C472.664 85.9527 472.385 88.5093 472.273 91.066C472.106 95.229 472.301 99.3694 473.166 103.487C473.779 106.428 474.839 109.234 476.206 111.972C477.035 113.615 478.131 115.14 479.222 116.657C479.783 117.438 480.343 118.216 480.864 119.008C483.82 123.488 486.749 127.99 488.617 132.877C489.733 135.796 490.458 138.76 490.486 141.814C490.5 142.934 490.493 144.06 490.486 145.185C490.479 146.311 490.472 147.436 490.486 148.556C490.514 149.936 490.235 151.249 489.789 152.561C488.868 155.208 485.354 156.294 482.509 154.846C480.696 153.941 480.25 152.38 479.999 150.887C479.664 149.009 479.525 147.086 479.609 145.162C479.646 144.198 479.633 143.233 479.621 142.268V142.266C479.615 141.784 479.609 141.301 479.609 140.818V133.737C479.609 133.149 479.358 132.877 478.604 132.9C476.596 132.922 474.588 132.922 472.608 132.9C471.827 132.9 471.52 133.171 471.52 133.782C471.551 135.673 471.532 137.564 471.513 139.455C471.481 142.654 471.449 145.854 471.66 149.054C471.799 151.022 472.022 152.991 472.803 154.869C474.839 159.778 479.079 161.769 484.489 161.996C485.577 162.041 486.665 161.928 487.753 161.792C490.179 161.475 492.299 160.683 494.112 159.348C497.291 156.973 498.602 153.828 498.742 150.502C499.02 146.271 499.188 141.995 498.63 137.696ZM462.093 154.439C463.99 154.71 465.914 154.756 467.839 154.688C468.619 154.665 468.926 154.914 468.898 155.525C468.87 157.154 468.87 158.805 468.898 160.457C468.898 161.023 468.619 161.249 467.922 161.249C466.968 161.241 466.01 161.25 465.051 161.259C463.292 161.275 461.529 161.292 459.778 161.204C457.296 161.068 454.925 160.502 453.001 159.1C451.467 157.991 450.602 156.566 450.156 154.982C449.514 152.787 449.459 150.57 449.459 148.353C449.477 141.641 449.471 134.94 449.465 128.236C449.462 124.882 449.459 121.528 449.459 118.171V85.387C449.459 84.3236 449.458 84.3236 448.148 84.3236H445.526C444.829 84.3236 444.522 84.0521 444.522 83.5091V78.7126C444.522 78.147 444.884 77.9207 445.554 77.9207H448.176C448.866 77.9207 449.185 77.9207 449.332 77.7618C449.459 77.6255 449.459 77.3725 449.459 76.9026V59.1419C449.459 58.5036 449.459 58.1605 449.63 57.9761C449.828 57.7618 450.258 57.7618 451.188 57.7618H456.877C458.16 57.7618 458.188 57.807 458.188 58.8704V76.9026C458.188 77.3905 458.188 77.6497 458.318 77.7874C458.464 77.9433 458.777 77.9433 459.443 77.9433H465.942C466.89 77.9433 467.058 78.0565 467.058 78.8257C467.071 79.6061 467.071 80.3864 467.071 81.1668C467.071 81.9476 467.071 82.7283 467.085 83.5091C467.113 84.1426 466.807 84.3689 466.026 84.3689C464.576 84.3538 463.139 84.3588 461.698 84.3638C460.976 84.3664 460.253 84.3689 459.527 84.3689C458.216 84.3689 458.216 84.3689 458.216 85.4323V129.619V150.05C458.216 150.977 458.467 151.86 458.969 152.674C459.583 153.692 460.726 154.235 462.093 154.439Z" fill="#252525"/>
</svg>
